<svg width="18" height="23" viewBox="0 0 18 23" fill="none" xmlns="http://www.w3.org/2000/svg">
<path d="M2.58022 9.80697V1.04651H4.42515V8.27988H8.16615V9.80697H2.58022Z" fill="white"/>
<path d="M17.067 5.42674C17.067 6.38206 16.8866 7.1948 16.5259 7.86495C16.168 8.5351 15.6794 9.04699 15.0601 9.4006C14.4437 9.75136 13.7507 9.92674 12.9809 9.92674C12.2054 9.92674 11.5095 9.74993 10.8931 9.39632C10.2767 9.04271 9.78952 8.53083 9.43161 7.86067C9.0737 7.19052 8.89475 6.37921 8.89475 5.42674C8.89475 4.47142 9.0737 3.65868 9.43161 2.98853C9.78952 2.31837 10.2767 1.80792 10.8931 1.45716C11.5095 1.10354 12.2054 0.926739 12.9809 0.926739C13.7507 0.926739 14.4437 1.10354 15.0601 1.45716C15.6794 1.80792 16.168 2.31837 16.5259 2.98853C16.8866 3.65868 17.067 4.47142 17.067 5.42674ZM15.1965 5.42674C15.1965 4.80792 15.1042 4.28605 14.9195 3.86115C14.7377 3.43624 14.4807 3.114 14.1483 2.89442C13.816 2.67484 13.4268 2.56505 12.9809 2.56505C12.5349 2.56505 12.1457 2.67484 11.8134 2.89442C11.4811 3.114 11.2226 3.43624 11.0379 3.86115C10.8561 4.28605 10.7652 4.80792 10.7652 5.42674C10.7652 6.04556 10.8561 6.56742 11.0379 6.99233C11.2226 7.41723 11.4811 7.73948 11.8134 7.95906C12.1457 8.17864 12.5349 8.28843 12.9809 8.28843C13.4268 8.28843 13.816 8.17864 14.1483 7.95906C14.4807 7.73948 14.7377 7.41723 14.9195 6.99233C15.1042 6.56742 15.1965 6.04556 15.1965 5.42674Z" fill="white"/>
<path d="M6.28918 16.0248C6.22953 15.8166 6.14574 15.6327 6.0378 15.473C5.92985 15.3104 5.79777 15.1735 5.64154 15.0623C5.48815 14.9483 5.31204 14.8613 5.1132 14.8014C4.9172 14.7415 4.6999 14.7116 4.4613 14.7116C4.01533 14.7116 3.62333 14.8228 3.28531 15.0452C2.95013 15.2677 2.6888 15.5913 2.50132 16.0162C2.31385 16.4383 2.22011 16.9544 2.22011 17.5647C2.22011 18.175 2.31242 18.694 2.49706 19.1217C2.6817 19.5495 2.94302 19.876 3.28105 20.1013C3.61907 20.3237 4.01817 20.435 4.47834 20.435C4.8959 20.435 5.25239 20.3608 5.5478 20.2125C5.84606 20.0614 6.0733 19.8489 6.22953 19.5752C6.3886 19.3014 6.46814 18.9777 6.46814 18.6042L6.84309 18.6598H4.59338V17.2653H8.2449V18.3689C8.2449 19.1389 8.08299 19.8004 7.75916 20.3537C7.43534 20.9041 6.98938 21.329 6.42127 21.6284C5.85316 21.925 5.20268 22.0733 4.46982 22.0733C3.65174 22.0733 2.93308 21.8922 2.31385 21.53C1.69461 21.165 1.21171 20.6474 0.865169 19.9773C0.521463 19.3043 0.349609 18.5058 0.349609 17.5818C0.349609 16.8717 0.451869 16.2387 0.656388 15.6826C0.863748 15.1236 1.15348 14.6503 1.52559 14.2624C1.8977 13.8746 2.33089 13.5794 2.82514 13.377C3.3194 13.1745 3.85484 13.0733 4.43147 13.0733C4.92572 13.0733 5.38589 13.146 5.81197 13.2914C6.23805 13.434 6.61584 13.6365 6.94535 13.8988C7.27769 14.1612 7.54896 14.4735 7.75916 14.8356C7.96936 15.1949 8.10429 15.5913 8.16394 16.0248H6.28918Z" fill="white"/>
<path d="M17.6496 17.5733C17.6496 18.5286 17.4692 19.3413 17.1085 20.0115C16.7505 20.6816 16.262 21.1935 15.6427 21.5471C15.0263 21.8979 14.3332 22.0733 13.5635 22.0733C12.788 22.0733 12.0921 21.8965 11.4757 21.5428C10.8593 21.1892 10.3721 20.6774 10.0142 20.0072C9.65629 19.337 9.47734 18.5257 9.47734 17.5733C9.47734 16.6179 9.65629 15.8052 10.0142 15.135C10.3721 14.4649 10.8593 13.9544 11.4757 13.6037C12.0921 13.2501 12.788 13.0733 13.5635 13.0733C14.3332 13.0733 15.0263 13.2501 15.6427 13.6037C16.262 13.9544 16.7505 14.4649 17.1085 15.135C17.4692 15.8052 17.6496 16.6179 17.6496 17.5733ZM15.7791 17.5733C15.7791 16.9544 15.6868 16.4326 15.5021 16.0077C15.3203 15.5828 15.0633 15.2605 14.7309 15.0409C14.3986 14.8214 14.0094 14.7116 13.5635 14.7116C13.1175 14.7116 12.7283 14.8214 12.396 15.0409C12.0637 15.2605 11.8052 15.5828 11.6205 16.0077C11.4387 16.4326 11.3478 16.9544 11.3478 17.5733C11.3478 18.1921 11.4387 18.7139 11.6205 19.1389C11.8052 19.5638 12.0637 19.886 12.396 20.1056C12.7283 20.3252 13.1175 20.435 13.5635 20.435C14.0094 20.435 14.3986 20.3252 14.7309 20.1056C15.0633 19.886 15.3203 19.5638 15.5021 19.1389C15.6868 18.7139 15.7791 18.1921 15.7791 17.5733Z" fill="white"/>
</svg>
