<svg width="184" height="48" viewBox="0 0 184 48" fill="none" xmlns="http://www.w3.org/2000/svg">
<mask id="mask0_114_3157" style="mask-type:luminance" maskUnits="userSpaceOnUse" x="6" y="4" width="25" height="25">
<path d="M30.5623 4.30847H6.77539V28.0954H30.5623V4.30847Z" fill="white"/>
</mask>
<g mask="url(#mask0_114_3157)">
<path d="M27.5037 16.2019C27.5037 17.9487 26.9859 19.6563 26.0158 21.1089C25.0456 22.5614 23.6666 23.6938 22.0531 24.3629C20.4396 25.032 18.6639 25.2078 16.9505 24.8681C15.2371 24.5283 13.6628 23.6883 12.4267 22.4542C11.1905 21.22 10.348 19.6471 10.0055 17.9342C9.66299 16.2214 9.83592 14.4454 10.5024 12.8308C11.1689 11.2162 12.2991 9.83541 13.7501 8.86292C15.2012 7.89042 16.9079 7.36988 18.6547 7.36707C19.8159 7.36583 20.966 7.59339 22.0393 8.03677C23.1125 8.48015 24.0879 9.13065 24.9097 9.95111C25.7314 10.7716 26.3835 11.7459 26.8286 12.8184C27.2737 13.891 27.5031 15.0407 27.5037 16.2019Z" fill="#345D9D"/>
<path d="M25.6289 16.202C25.6289 17.578 25.2211 18.923 24.4569 20.0673C23.6928 21.2115 22.6066 22.1036 21.3357 22.6308C20.0647 23.158 18.666 23.2967 17.3163 23.0293C15.9666 22.7619 14.7265 22.1004 13.7525 21.1284C12.7786 20.1565 12.1146 18.9177 11.8445 17.5685C11.5743 16.2194 11.7101 14.8204 12.2347 13.5484C12.7593 12.2764 13.6492 11.1884 14.7919 10.4219C15.9346 9.65545 17.2788 9.24487 18.6547 9.24207C19.5687 9.24207 20.4738 9.42209 21.3182 9.77186C22.1626 10.1216 22.9299 10.6343 23.5762 11.2806C24.2225 11.9269 24.7351 12.6941 25.0849 13.5386C25.4347 14.383 25.6147 15.288 25.6147 16.202" fill="#345D9D"/>
<path d="M18.1529 18.5601L18.7258 16.4011L20.0847 15.9276L20.4208 14.6587V14.6256L19.0809 15.099L20.0278 11.4723H17.3054L16.0413 16.207L14.9902 16.5715L14.6445 17.883L15.6956 17.5185L14.9523 20.3072H22.2247L22.6982 18.5695H18.1529" fill="white"/>
</g>
<mask id="mask1_114_3157" style="mask-type:luminance" maskUnits="userSpaceOnUse" x="36" y="4" width="24" height="25">
<path d="M59.8944 4.30847H36.1074V28.0954H59.8944V4.30847Z" fill="white"/>
</mask>
<g mask="url(#mask1_114_3157)">
<path d="M48.0104 7.36707C49.7573 7.36894 51.4645 7.88869 52.9162 8.86062C54.3678 9.83254 55.4987 11.213 56.166 12.8275C56.8332 14.4421 57.0068 16.2182 56.6649 17.9313C56.3229 19.6445 55.4807 21.2179 54.2448 22.4525C53.0088 23.6871 51.4346 24.5276 49.721 24.8678C48.0075 25.2079 46.2316 25.0324 44.6178 24.3634C43.0039 23.6944 41.6247 22.562 40.6543 21.1094C39.6839 19.6567 39.166 17.9489 39.166 16.202C39.166 15.0409 39.3948 13.8913 39.8394 12.8188C40.284 11.7463 40.9356 10.7719 41.757 9.9514C42.5784 9.13088 43.5535 8.4803 44.6265 8.03687C45.6995 7.59343 46.8494 7.36583 48.0104 7.36707Z" fill="#53AE94"/>
<path d="M49.0907 15.0231V13.7306H52.0972V11.7089H43.9109V13.7306H46.9174V15.0421C44.4744 15.1557 42.6562 15.6386 42.6562 16.2163C42.6562 16.7939 44.498 17.2816 46.9174 17.3952V21.6043H49.0907V17.3763C51.529 17.2626 53.3518 16.7797 53.3518 16.1973C53.3518 15.615 51.5148 15.1368 49.0907 15.0231ZM49.0907 17.0164C49.0291 17.0164 48.7166 17.0401 48.0159 17.0401C47.4525 17.0401 47.069 17.0401 46.9222 17.0164C44.7632 16.9217 43.1344 16.543 43.1344 16.0979C43.1344 15.6528 44.749 15.2741 46.9222 15.151V16.6187C47.0595 16.6187 47.4667 16.6518 48.0254 16.6518C48.6929 16.6518 49.0291 16.6518 49.0907 16.6187V15.151C51.2449 15.2504 52.8784 15.6244 52.8784 16.0979C52.8784 16.5714 51.2686 16.9217 49.0907 17.0164Z" fill="white"/>
</g>
<mask id="mask2_114_3157" style="mask-type:luminance" maskUnits="userSpaceOnUse" x="65" y="4" width="25" height="25">
<path d="M89.2244 4.30847H65.4375V28.0954H89.2244V4.30847Z" fill="white"/>
</mask>
<g mask="url(#mask2_114_3157)">
<path d="M77.3332 7.36707L77.2148 7.76951V19.4547L77.3332 19.573L82.7544 16.3629L77.3332 7.36707Z" fill="#62688F"/>
<path d="M77.3322 7.36707L71.9062 16.3629L77.3322 19.573V13.9009V7.36707Z" fill="#8A92B2"/>
<path d="M77.3319 20.5959L77.2656 20.6811V24.8429L77.3319 25.037L82.7578 17.3953L77.3319 20.5959Z" fill="#62688F"/>
<path d="M77.3322 25.037V20.5959L71.9062 17.3953L77.3322 25.037Z" fill="#8A92B2"/>
<path d="M77.332 19.5731L82.7532 16.363L77.332 13.901V19.5731Z" fill="#454A75"/>
<path d="M71.9062 16.363L77.3322 19.5731V13.901L71.9062 16.363Z" fill="#62688F"/>
</g>
<mask id="mask3_114_3157" style="mask-type:luminance" maskUnits="userSpaceOnUse" x="94" y="4" width="25" height="25">
<path d="M118.556 4.30847H94.7695V28.0954H118.556V4.30847Z" fill="white"/>
</mask>
<g mask="url(#mask3_114_3157)">
<path d="M115.241 18.3373C114.819 20.0332 113.904 21.5659 112.611 22.7416C111.318 23.9173 109.706 24.6832 107.978 24.9425C106.249 25.2017 104.483 24.9427 102.902 24.198C101.321 23.4534 99.9968 22.2567 99.0961 20.7592C98.1954 19.2618 97.7589 17.5308 97.842 15.7853C97.9251 14.0398 98.524 12.3581 99.5629 10.953C100.602 9.54783 102.034 8.48234 103.679 7.89125C105.323 7.30016 107.106 7.21002 108.802 7.63225C111.074 8.1994 113.029 9.64533 114.236 11.6525C115.443 13.6597 115.805 16.0639 115.241 18.3373Z" fill="url(#paint0_linear_114_3157)"/>
<path d="M110.87 15.0988C111.04 13.9246 110.15 13.2901 108.924 12.8688L109.321 11.2779L108.375 11.0364L107.991 12.5894C107.735 12.5279 107.47 12.4616 107.21 12.4095L107.593 10.8471L106.646 10.6056L106.253 12.1964L105.633 12.0497L104.293 11.7182L104.038 12.7551C104.038 12.7551 104.757 12.9208 104.743 12.9303C104.81 12.9374 104.874 12.9576 104.933 12.9898C104.992 13.022 105.044 13.0656 105.086 13.118C105.128 13.1704 105.159 13.2306 105.177 13.2951C105.195 13.3596 105.201 13.4271 105.193 13.4937L104.719 15.3118C104.754 15.3163 104.788 15.3275 104.819 15.345L104.719 15.3166L104.08 17.8591C104.051 17.9469 103.988 18.0198 103.906 18.0622C103.824 18.1047 103.728 18.1133 103.64 18.0864L102.934 17.9112L102.461 19.0238L103.725 19.341L104.416 19.521L104.014 21.1307L104.961 21.3722L105.363 19.7766L106.135 19.9755L105.742 21.5616L106.689 21.8031L107.091 20.198C108.749 20.5058 109.989 20.3827 110.505 18.8865C110.927 17.6839 110.505 16.9926 109.615 16.5192C109.951 16.4538 110.255 16.2788 110.48 16.0217C110.706 15.7646 110.839 15.44 110.86 15.0988H110.87ZM108.654 18.2047C108.356 19.4073 106.329 18.7587 105.671 18.593L106.201 16.4576C106.859 16.6233 108.971 16.9311 108.654 18.2047ZM108.957 15.0798C108.682 16.1783 106.997 15.6196 106.452 15.4776L106.926 13.5458C107.47 13.6831 109.232 13.9388 108.947 15.0798H108.957Z" fill="white"/>
</g>
<mask id="mask4_114_3157" style="mask-type:luminance" maskUnits="userSpaceOnUse" x="124" y="4" width="24" height="25">
<path d="M147.892 4.30847H124.105V28.0954H147.892V4.30847Z" fill="white"/>
</mask>
<g mask="url(#mask4_114_3157)">
<path d="M135.162 7.40503C137.467 7.21896 139.753 7.94352 141.53 9.42333C143.307 10.9031 144.433 13.0204 144.667 15.3209C144.902 17.6215 144.225 19.9222 142.782 21.7297C141.34 23.5372 139.247 24.7074 136.952 24.9896C135.751 25.1167 134.537 25.0007 133.382 24.6487C131.43 24.044 129.748 22.7818 128.622 21.0769C127.496 19.372 126.995 17.3297 127.205 15.2973C127.415 13.2648 128.322 11.3678 129.773 9.92898C131.224 8.49011 133.128 7.59823 135.162 7.40503Z" fill="#988430"/>
<path d="M135.825 7.64168C137.695 7.60479 139.526 8.18133 141.037 9.28314C142.548 10.385 143.657 11.9514 144.194 13.743C144.731 15.5346 144.666 17.4527 144.01 19.2041C143.354 20.9554 142.142 22.4437 140.56 23.4412C139.167 24.3194 137.551 24.7783 135.905 24.7632C134.259 24.7481 132.651 24.2596 131.275 23.356C129.75 22.3506 128.586 20.8838 127.953 19.1699C127.321 17.456 127.253 15.5848 127.76 13.8296C128.266 12.0744 129.321 10.5271 130.769 9.41387C132.218 8.30061 133.984 7.67964 135.811 7.64168H135.825Z" fill="#7A6A2A"/>
<path d="M132.572 8.55063C134.346 7.75704 136.341 7.605 138.216 8.12056C140.09 8.63612 141.727 9.78719 142.846 11.3767C143.965 12.9662 144.496 14.8953 144.349 16.8336C144.203 18.7719 143.387 20.5989 142.041 22.0018C142.017 21.5283 142.013 21.0265 142.003 20.5388C142.003 20.1742 141.918 19.8239 141.89 19.464C141.89 19.3362 141.89 19.2131 141.913 19.09C141.913 18.7491 141.752 18.4319 141.8 18.091C141.772 17.6203 141.659 17.1585 141.468 16.7274C141.34 16.4102 141.35 16.0645 141.231 15.7473C141.173 14.5002 140.639 13.3228 139.74 12.4567C139.773 12.4188 139.83 12.3289 139.863 12.2863C139.896 12.3668 139.939 12.4425 139.981 12.523C140.162 12.2607 140.27 11.9552 140.294 11.6376C140.384 11.0885 140.365 10.5269 140.237 9.98523C140.203 9.69056 140.077 9.41406 139.877 9.19454C139.748 9.10674 139.59 9.07247 139.437 9.09898C139.283 9.12548 139.146 9.21068 139.054 9.33658V9.40287C138.948 9.59601 138.795 9.75899 138.608 9.87634C138.272 10.0799 138.092 10.4729 137.737 10.6528C137.515 10.7238 137.287 10.6007 137.06 10.6244C136.631 10.6504 136.205 10.7122 135.787 10.8091C135.394 10.7475 135.001 10.686 134.612 10.6102C134.612 10.5818 134.612 10.525 134.612 10.4966C134.423 10.3321 134.283 10.1193 134.205 9.88107C134.152 9.6482 134.051 9.42879 133.91 9.23653C133.768 9.04428 133.588 8.88331 133.381 8.76369L133.201 8.69267L133.093 8.8205C133.093 8.84891 133.055 8.9152 133.04 8.94834C132.969 9.16312 132.941 9.39024 132.96 9.61593C132.976 10.2012 132.869 10.7833 132.648 11.3251C132.25 11.3251 131.857 11.3251 131.464 11.3251C131.407 11.5072 131.388 11.6988 131.407 11.8886C130.82 12.5087 130.463 13.3104 130.394 14.1612C130.394 14.2228 130.394 14.289 130.394 14.3506C130.394 14.4121 130.394 14.4263 130.394 14.4548C130.158 14.8455 130.02 15.2872 129.991 15.7426H130.299L130.02 15.771C130.02 15.8704 129.987 15.9698 129.972 16.074L130.247 15.9698H130.299C130.19 16.0125 130.081 16.0645 129.977 16.1166C129.977 16.1829 129.977 16.3107 129.977 16.3723L130.351 16.1876L130.304 16.235C130.188 16.2888 130.08 16.3572 129.982 16.4386C129.988 16.6719 130.01 16.9044 130.048 17.1346C130.131 17.6572 130.311 18.1598 130.578 18.6165C130.582 18.9523 130.487 19.2818 130.304 19.5635C130.356 19.6676 130.451 19.7623 130.455 19.8854C130.422 20.089 130.252 20.2642 130.29 20.4867C130.301 21.0156 130.169 21.5377 129.906 21.9971C128.98 21.0263 128.3 19.8471 127.924 18.5589C127.548 17.2706 127.486 15.9108 127.745 14.594C128.004 13.2772 128.576 12.0418 129.411 10.9918C130.247 9.94175 131.323 9.10781 132.548 8.5601L132.572 8.55063Z" fill="#BA9F33"/>
<path d="M133.088 8.80642L133.197 8.67859L133.377 8.74961C133.519 9.05541 133.597 9.38758 133.604 9.72495C133.559 9.95431 133.577 10.1915 133.656 10.4115C133.719 10.5216 133.815 10.6094 133.93 10.6624C133.871 10.7139 133.807 10.7613 133.741 10.8045C133.483 10.9235 133.253 11.0944 133.064 11.3063H132.832C133.243 10.7837 133.457 10.1337 133.438 9.46928C133.438 9.19467 133.239 8.99581 133.088 8.79696V8.80642Z" fill="#C79C3B"/>
<path d="M133.377 8.74976C133.581 8.87133 133.757 9.03316 133.895 9.22531C134.034 9.41746 134.131 9.63587 134.182 9.86714C134.26 10.1054 134.401 10.3182 134.59 10.4826C134.59 10.511 134.59 10.5679 134.59 10.5963C134.483 10.5417 134.363 10.519 134.244 10.5307C134.124 10.5425 134.011 10.5882 133.917 10.6626C133.802 10.6095 133.706 10.5218 133.643 10.4116C133.564 10.1916 133.546 9.95445 133.591 9.7251C133.583 9.38773 133.506 9.05555 133.363 8.74976H133.377Z" fill="#B58634"/>
<path d="M133.087 8.80651C133.238 9.00537 133.447 9.20422 133.437 9.47883C133.454 10.14 133.24 10.7863 132.831 11.3064H132.713C132.923 11.0308 133.056 10.7038 133.096 10.3595C133.134 9.88601 132.983 9.41255 133.035 8.91067C133.035 8.87753 133.073 8.81124 133.087 8.78284V8.80651Z" fill="#DFC068"/>
<path d="M132.955 9.60191C132.936 9.37623 132.964 9.1491 133.036 8.93433C132.983 9.40779 133.135 9.88126 133.097 10.3831C133.056 10.7274 132.924 11.0544 132.714 11.3301H132.643C132.864 10.7882 132.971 10.2061 132.955 9.62085V9.60191Z" fill="#A78F33"/>
<path d="M139.062 9.33681C139.155 9.2109 139.292 9.1257 139.446 9.0992C139.599 9.0727 139.757 9.10696 139.886 9.19477C140.086 9.41428 140.212 9.69078 140.246 9.98546C140.374 10.5271 140.393 11.0887 140.303 11.6379C140.279 11.9554 140.171 12.261 139.99 12.5232C139.948 12.4427 139.905 12.367 139.872 12.2865C139.839 12.206 139.796 12.045 139.758 11.9267C139.899 11.5903 139.987 11.2341 140.019 10.8708C140.02 10.7168 139.985 10.5647 139.917 10.4266C139.848 10.2885 139.749 10.1683 139.626 10.0754C139.496 9.79011 139.303 9.53769 139.062 9.33681Z" fill="#A17C34"/>
<path d="M139.044 9.40296V9.33667C139.285 9.53755 139.477 9.78997 139.607 10.0753C139.607 10.1605 139.584 10.2552 139.494 10.2883C139.213 10.3911 138.958 10.5526 138.745 10.7618C138.613 10.9275 138.357 11.0222 138.338 11.2353C138.367 11.2589 138.424 11.2968 138.447 11.3205L138.348 11.4531L138.447 11.5572C138.605 11.4402 138.788 11.3638 138.982 11.3347L138.897 11.543L139.129 11.4957C139.031 11.605 138.925 11.7063 138.812 11.7987L138.764 11.7703C138.635 11.6837 138.488 11.627 138.334 11.6046L138.3 11.5099C138.213 11.5056 138.127 11.4897 138.045 11.4625L138.139 11.2305L137.945 11.3252C138.078 11.1122 138.201 10.8944 138.329 10.6813L138.367 10.6198C138.542 10.2931 138.798 10.0232 138.973 9.70124C139.024 9.60749 139.043 9.49901 139.025 9.39349L139.044 9.40296Z" fill="#B89844"/>
<path d="M139.043 9.40312C139.061 9.50864 139.043 9.61712 138.991 9.71087C138.816 10.0328 138.56 10.3027 138.385 10.6294C138.361 10.3564 138.437 10.0838 138.598 9.86238C138.785 9.74503 138.938 9.58206 139.043 9.38892V9.40312Z" fill="#CBA94C"/>
<path d="M137.727 10.6389C138.083 10.459 138.262 10.066 138.599 9.86243C138.437 10.0839 138.361 10.3564 138.386 10.6294L138.348 10.691C138.362 10.5873 138.362 10.4822 138.348 10.3785C138.186 10.7342 137.976 11.0656 137.723 11.3633C137.569 11.3214 137.409 11.3022 137.249 11.3065C137.338 11.1473 137.441 10.9967 137.557 10.8567C136.959 10.7959 136.358 10.7754 135.758 10.7952C136.176 10.6983 136.602 10.6365 137.031 10.6105C137.259 10.5868 137.505 10.7099 137.709 10.6389H137.727Z" fill="#AC8132"/>
<path d="M139.625 10.0754C139.748 10.1683 139.848 10.2886 139.916 10.4266C139.984 10.5647 140.019 10.7168 140.018 10.8709C139.987 11.2342 139.899 11.5903 139.758 11.9267L139.422 12.1871L139.261 12.0687H139.233C139.465 11.7238 139.626 11.3358 139.706 10.9277C139.376 10.9378 139.05 10.9935 138.735 11.0934C138.608 11.1265 138.541 11.2449 138.47 11.3491C138.447 11.3254 138.39 11.2875 138.361 11.2638C138.361 11.0318 138.636 10.9371 138.769 10.7904C138.981 10.5811 139.236 10.4197 139.517 10.3169C139.607 10.2838 139.625 10.1891 139.63 10.1038L139.625 10.0754Z" fill="#927238"/>
<path d="M138.33 10.3783C138.344 10.482 138.344 10.5871 138.33 10.6908C138.202 10.9038 138.079 11.1216 137.947 11.3347L138.141 11.24L138.046 11.472C137.932 11.4341 137.819 11.3915 137.705 11.3631C137.951 11.0643 138.155 10.7329 138.311 10.3783H138.33Z" fill="#8C6228"/>
<path d="M133.932 10.6623C134.026 10.588 134.139 10.5422 134.258 10.5305C134.377 10.5187 134.497 10.5415 134.604 10.596C134.992 10.6718 135.385 10.7333 135.778 10.7949C136.379 10.7751 136.98 10.7956 137.577 10.8564C137.461 10.9964 137.358 11.147 137.27 11.3062C136.323 11.3062 135.333 11.3062 134.362 11.3062C134.325 11.1689 134.32 10.9985 134.192 10.9085C134.054 10.8342 133.899 10.7982 133.742 10.8043C133.808 10.7612 133.872 10.7138 133.932 10.6623Z" fill="#D2A83E"/>
<path d="M133.064 11.3062C133.253 11.0943 133.484 10.9234 133.742 10.8044C133.893 10.7941 134.045 10.8235 134.182 10.8896C134.31 10.9796 134.314 11.15 134.352 11.2873L133.064 11.3062Z" fill="#DCBA5A"/>
<path d="M138.731 11.0744C139.045 10.9745 139.372 10.9188 139.701 10.9087C139.621 11.3168 139.46 11.7048 139.228 12.0497C139.1 11.9593 138.965 11.8785 138.825 11.8083C138.939 11.7159 139.045 11.6145 139.143 11.5053L138.911 11.5526L138.996 11.3443C138.802 11.3734 138.618 11.4498 138.461 11.5668L138.361 11.4626L138.461 11.3301C138.532 11.2259 138.598 11.1075 138.726 11.0744H138.731Z" fill="#543E26"/>
<path d="M131.458 11.311C131.851 11.311 132.244 11.311 132.642 11.311H134.361C135.331 11.311 136.297 11.311 137.268 11.311C137.427 11.3067 137.587 11.3259 137.741 11.3678C137.855 11.3962 137.968 11.4388 138.082 11.4767C138.165 11.5039 138.251 11.5198 138.338 11.5241L138.371 11.6188C138.525 11.6412 138.672 11.6978 138.802 11.7845C138.695 12.0032 138.545 12.1981 138.361 12.3574C138.51 12.4383 138.654 12.5284 138.792 12.6272C138.963 12.4521 139.119 12.2627 139.266 12.0733L139.427 12.1917C139.54 12.2769 139.649 12.3668 139.753 12.4615C140.658 13.3334 141.192 14.5204 141.245 15.7758C141.245 15.9368 141.245 16.0977 141.245 16.2493C141.25 16.8877 141.174 17.5241 141.017 18.1431C140.903 18.5724 140.733 18.9847 140.511 19.3694C140.357 19.6141 140.182 19.844 139.985 20.0559C139.855 20.1959 139.712 20.3243 139.559 20.4394L139.389 20.3116C139.28 20.3956 139.154 20.4539 139.019 20.482C138.832 20.5134 138.647 20.5561 138.465 20.6099C138.65 20.34 139.019 20.1364 138.939 19.7624H138.636L138.735 19.3647L138.603 19.2747C138.716 19.1469 138.83 19.0238 138.939 18.8865C138.715 18.954 138.497 19.0378 138.286 19.1374C138.706 18.5353 139.076 17.8986 139.389 17.2341C139.61 16.8358 139.751 16.3984 139.805 15.9462C139.805 15.648 139.63 15.3923 139.621 15.0987C139.648 14.7555 139.54 14.4152 139.318 14.1518C138.834 14.2118 138.343 14.1958 137.864 14.1045C137.734 14.0909 137.603 14.0989 137.476 14.1281L137.405 14.0476C137.266 13.8849 137.091 13.7569 136.894 13.6736C136.705 13.6546 136.514 13.6546 136.325 13.6736H136.297C136.097 13.5539 135.867 13.4962 135.634 13.5079C135.435 13.5079 135.322 13.7067 135.161 13.8062C134.993 13.9003 134.843 14.0219 134.716 14.166C134.892 14.426 135.161 14.6076 135.468 14.6726C135.468 14.8525 135.445 15.0325 135.431 15.2124C135.246 15.2737 135.072 15.3631 134.914 15.4775C134.829 15.2929 134.791 15.094 134.706 14.9093C134.612 14.7997 134.506 14.7012 134.389 14.6158C134.365 14.6916 134.342 14.772 134.313 14.8525L134.147 14.9378C134.146 14.8014 134.135 14.6654 134.114 14.5306C134.023 14.3005 133.916 14.0774 133.792 13.863C133.792 13.631 133.878 13.3895 133.882 13.167C133.764 13.2143 133.646 13.257 133.532 13.309C133.418 13.3611 133.3 13.5363 133.163 13.6263C133.032 13.6719 132.897 13.7067 132.76 13.7304V13.6783C132.867 13.5638 132.933 13.4175 132.95 13.2617L132.718 13.3753C132.618 13.238 132.765 13.1433 132.85 13.0581C132.793 12.9923 132.718 12.9437 132.634 12.9178C132.551 12.8919 132.461 12.8896 132.377 12.9113C132.243 12.9759 132.13 13.0766 132.05 13.2021C131.971 13.3277 131.928 13.4729 131.927 13.6215C131.809 13.6215 131.69 13.6215 131.567 13.6215L131.709 13.3658C131.675 13.3085 131.629 13.259 131.574 13.2206C131.52 13.1823 131.457 13.1559 131.392 13.1433C131.392 12.8214 131.392 12.4947 131.392 12.1727C131.392 12.078 131.392 11.9833 131.392 11.8886C131.373 11.6989 131.392 11.5073 131.449 11.3252L131.458 11.311Z" fill="#F3EBDB"/>
<path d="M138.784 11.7798L138.831 11.8082C138.971 11.8785 139.105 11.9592 139.233 12.0497H139.262C139.101 12.2391 138.945 12.4285 138.788 12.6036C138.65 12.5048 138.506 12.4147 138.357 12.3338C138.541 12.1744 138.691 11.9796 138.798 11.7609L138.784 11.7798Z" fill="#DCDAD7"/>
<path d="M130.395 14.1614C130.459 13.3062 130.815 12.499 131.403 11.8745C131.403 11.9692 131.403 12.0639 131.403 12.1586C130.997 12.6144 130.728 13.1757 130.627 13.7778C130.576 13.9765 130.503 14.1687 130.409 14.3507C130.409 14.2892 130.409 14.2229 130.409 14.1614H130.395Z" fill="#A78E32"/>
<path d="M139.422 12.1869L139.758 11.9265C139.796 12.0449 139.829 12.168 139.872 12.2863C139.839 12.329 139.782 12.4189 139.749 12.4568C139.644 12.3621 139.536 12.2721 139.422 12.1869Z" fill="#B59544"/>
<path d="M130.621 13.7778C130.722 13.1757 130.991 12.6143 131.398 12.1586C131.398 12.4805 131.398 12.8072 131.398 13.1292C131.199 13.2996 131.109 13.579 130.853 13.6784C130.818 13.8492 130.747 14.0106 130.645 14.1519C130.569 14.2513 130.489 14.3412 130.408 14.4359C130.408 14.4075 130.408 14.3602 130.408 14.3318C130.502 14.1497 130.575 13.9575 130.626 13.7589L130.621 13.7778Z" fill="#EBCC73"/>
<path d="M132.383 12.8926C132.467 12.8709 132.556 12.8731 132.64 12.899C132.724 12.9249 132.798 12.9735 132.856 13.0393C132.771 13.1246 132.624 13.2193 132.723 13.3566L132.955 13.2429C132.939 13.3987 132.873 13.545 132.766 13.6596C132.609 13.641 132.45 13.641 132.293 13.6596C132.298 13.5656 132.311 13.4722 132.33 13.3802C132.411 13.3119 132.502 13.2575 132.6 13.2193C132.552 13.1559 132.495 13.1 132.43 13.0535C132.339 13.0709 132.255 13.1148 132.188 13.1796C132.122 13.2444 132.076 13.3274 132.056 13.4181C132.056 13.5033 132.056 13.5886 132.084 13.6785H131.938V13.6217C131.939 13.4731 131.981 13.3278 132.061 13.2023C132.14 13.0768 132.253 12.9761 132.387 12.9115L132.383 12.8926Z" fill="#D7D7D5"/>
<path d="M139.575 13.0108C139.722 12.9587 139.869 12.9114 140.02 12.8688C140.069 12.9775 140.09 13.0962 140.083 13.2149C140.075 13.3336 140.039 13.4487 139.978 13.5506H140.144C140.144 13.74 140.144 14.0004 139.93 14.0619C139.807 13.792 139.514 13.6358 139.457 13.3375C139.483 13.2197 139.529 13.1074 139.594 13.0061L139.575 13.0108Z" fill="#E6DED7"/>
<path d="M132.041 13.4086C132.061 13.3179 132.107 13.2349 132.173 13.1701C132.24 13.1053 132.324 13.0615 132.415 13.0441C132.48 13.0906 132.537 13.1464 132.585 13.2098C132.487 13.248 132.396 13.3024 132.316 13.3708C132.296 13.4627 132.283 13.5561 132.278 13.6501H132.069C132.069 13.5601 132.046 13.4749 132.041 13.3897V13.4086Z" fill="#F5F2E6"/>
<path d="M133.519 13.2572C133.633 13.2051 133.751 13.1625 133.87 13.1151C133.87 13.3471 133.794 13.5886 133.78 13.8111C133.903 14.0255 134.011 14.2486 134.102 14.4787C134.122 14.6135 134.133 14.7495 134.135 14.8859L134.301 14.8007C134.329 14.7202 134.353 14.6397 134.376 14.5639C134.493 14.6493 134.599 14.7478 134.694 14.8575C134.779 15.0421 134.817 15.241 134.902 15.4256C135.059 15.3113 135.233 15.2218 135.418 15.1605C135.418 14.9806 135.446 14.8007 135.456 14.6207C135.458 14.594 135.458 14.567 135.456 14.5402C135.347 14.4503 135.181 14.3935 135.167 14.2372C135.168 14.1383 135.192 14.0409 135.236 13.9523C135.281 13.8638 135.344 13.7864 135.423 13.7259H135.546C135.622 13.7259 135.659 13.6738 135.659 13.5886C135.764 13.5886 135.868 13.5886 135.972 13.5886C135.926 13.6666 135.864 13.7344 135.791 13.7881C135.717 13.8418 135.634 13.8802 135.546 13.9011C135.546 14.0005 135.546 14.0999 135.546 14.1946C135.546 14.2893 135.546 14.3935 135.522 14.4929V15.2599C135.522 16.4199 135.522 17.5846 135.522 18.7446C135.527 18.7753 135.535 18.8054 135.546 18.8346C136.067 18.8014 136.663 18.9672 137.118 18.6263C137.409 18.3772 137.644 18.0689 137.808 17.722C137.971 17.3751 138.059 16.9974 138.065 16.614C138.173 15.7137 137.945 14.8052 137.426 14.062C137.553 14.0328 137.684 14.0248 137.814 14.0384C138.293 14.1298 138.783 14.1457 139.267 14.0857C139.489 14.3491 139.598 14.6894 139.57 15.0326C139.57 15.3262 139.769 15.5819 139.755 15.8802C139.726 16.3514 139.602 16.8119 139.39 17.2343C139.082 17.9032 138.718 18.5447 138.301 19.1518C138.513 19.0522 138.731 18.9684 138.955 18.9009C138.846 19.0382 138.732 19.1613 138.619 19.2891L138.751 19.3791L138.652 19.7768H138.955C139.016 20.1508 138.647 20.3544 138.481 20.6243C138.663 20.5705 138.848 20.5278 139.035 20.4964C139.17 20.4683 139.296 20.41 139.405 20.326L139.608 20.4302C138.863 20.9861 137.952 21.2747 137.023 21.2493C136.228 21.2493 135.427 21.2493 134.632 21.2493H132.61C132.269 21.2493 131.929 21.2493 131.592 21.2493C131.474 21.2493 131.427 21.1262 131.422 21.0315C131.422 20.7616 131.422 20.4917 131.422 20.2218C131.422 19.952 131.422 19.6063 131.422 19.3033C131.42 19.1689 131.438 19.035 131.474 18.9056C131.9 18.863 132.326 18.9056 132.752 18.9056C132.752 18.7588 132.752 18.6168 132.752 18.47V18.1339C132.776 18.2285 132.809 18.328 132.842 18.4227C133.041 18.3848 133.268 18.3327 133.42 18.5126C133.775 18.2001 134.301 18.2143 134.727 18.0392C134.817 17.7977 135.035 17.6036 135.006 17.329H134.935C134.49 17.1917 134.073 17.4757 133.638 17.5136C133.345 17.4853 133.075 17.3444 132.885 17.1206C132.885 17.0544 132.918 16.9928 132.932 16.9265L132.804 16.8224C132.804 16.6898 132.804 16.5619 132.804 16.4341C132.825 16.3603 132.861 16.2916 132.91 16.2328C132.959 16.174 133.02 16.1264 133.089 16.0932C133.131 15.866 133.169 15.6197 133.207 15.4067C133.083 15.2563 132.919 15.1445 132.733 15.0847V14.6113C132.733 14.3461 132.733 14.081 132.733 13.8158V13.7306C132.874 13.7028 133.012 13.6632 133.145 13.6123C133.283 13.5223 133.358 13.3566 133.515 13.295L133.519 13.2572Z" fill="#F8F3E4"/>
<path d="M130.867 13.6784C131.122 13.5789 131.212 13.2996 131.411 13.1292C131.411 13.2807 131.411 13.4322 131.411 13.6026H131.577C131.7 13.6026 131.818 13.6026 131.937 13.6026V13.6594H131.463C131.444 13.7499 131.431 13.8417 131.425 13.934C131.139 14.1002 130.88 14.3094 130.658 14.5543C130.658 14.4264 130.658 14.2986 130.658 14.1755C130.76 14.0342 130.831 13.8728 130.867 13.702V13.6784Z" fill="#F4EFC8"/>
<path d="M131.396 13.1292C131.462 13.1418 131.524 13.1681 131.579 13.2065C131.634 13.2448 131.68 13.2943 131.714 13.3517L131.572 13.6074H131.406C131.406 13.4558 131.406 13.3043 131.406 13.1339L131.396 13.1292Z" fill="#FCFCF4"/>
<path d="M135.128 13.773C135.289 13.6736 135.402 13.4937 135.601 13.4747C135.834 13.4631 136.064 13.5207 136.264 13.6405H135.956C135.852 13.6405 135.748 13.6405 135.644 13.6405C135.626 13.6391 135.609 13.6419 135.593 13.6487C135.577 13.6555 135.563 13.6661 135.551 13.6796C135.54 13.6931 135.533 13.709 135.529 13.7261C135.525 13.7432 135.526 13.7609 135.53 13.7778H135.407C135.329 13.8383 135.265 13.9157 135.221 14.0042C135.177 14.0928 135.153 14.1901 135.151 14.2891C135.151 14.4454 135.331 14.5022 135.44 14.5921C135.443 14.6189 135.443 14.6458 135.44 14.6726C135.133 14.6076 134.863 14.426 134.688 14.166C134.815 14.0219 134.965 13.9003 135.133 13.8062L135.128 13.773Z" fill="#D7D7D5"/>
<path d="M131.434 13.6549H131.955C132.017 13.7849 132.116 13.8937 132.239 13.9673L132.353 14.062C132.203 14.2401 132.069 14.4301 131.95 14.6302L131.681 14.7391L131.6 14.6917L131.676 14.5639L131.468 14.5118C131.43 14.3165 131.406 14.1187 131.396 13.92C131.402 13.8276 131.415 13.7358 131.434 13.6454V13.6549Z" fill="#E5C66B"/>
<path d="M131.957 13.6643H132.071C132.071 13.9058 132.336 13.8774 132.502 13.8537L132.279 13.6454C132.436 13.6268 132.595 13.6268 132.752 13.6454V13.6975V13.7543C132.573 13.7922 132.454 13.9815 132.279 13.9626C132.155 13.889 132.056 13.7802 131.995 13.6501L131.957 13.6643Z" fill="#242110"/>
<path d="M132.069 13.6688H132.277L132.5 13.8771C132.334 13.9008 132.055 13.9292 132.069 13.6878V13.6688Z" fill="#938357"/>
<path d="M135.551 13.7684C135.546 13.7515 135.546 13.7338 135.549 13.7167C135.553 13.6996 135.561 13.6837 135.572 13.6702C135.583 13.6567 135.597 13.6462 135.613 13.6393C135.629 13.6325 135.647 13.6297 135.664 13.6311C135.664 13.7163 135.626 13.7636 135.551 13.7684Z" fill="#CDBD83"/>
<path d="M135.976 13.6359H136.284H136.312C136.449 13.72 136.576 13.8184 136.691 13.9294C136.571 14.2098 136.352 14.4359 136.076 14.5639C135.904 14.5992 135.729 14.6135 135.555 14.6065V14.5402H135.948C135.799 14.4847 135.67 14.3857 135.578 14.2561C135.578 14.1614 135.578 14.062 135.578 13.9626C135.667 13.9417 135.75 13.9033 135.823 13.8496C135.896 13.7959 135.958 13.7281 136.004 13.6501L135.976 13.6359Z" fill="#252211"/>
<path d="M136.312 13.6501C136.501 13.6311 136.691 13.6311 136.88 13.6501C137.077 13.7334 137.252 13.8614 137.391 14.0241C137.222 14.2395 137.064 14.464 136.918 14.6965C136.752 14.919 136.445 14.9616 136.227 15.0847C136.018 15.2064 135.785 15.2807 135.545 15.3025V14.6065C135.72 14.6135 135.895 14.5992 136.066 14.5639C136.347 14.4432 136.573 14.2221 136.7 13.9437C136.585 13.8326 136.458 13.7342 136.321 13.6501H136.312Z" fill="#D2B257"/>
<path d="M132.241 13.9768C132.435 13.9768 132.554 13.8063 132.715 13.7684C132.715 14.0336 132.715 14.2987 132.715 14.5639C132.576 14.6294 132.42 14.6493 132.27 14.6207C132.217 14.5973 132.16 14.5853 132.102 14.5853C132.044 14.5853 131.987 14.5973 131.934 14.6207C132.052 14.4206 132.187 14.2306 132.336 14.0525L132.222 13.9578L132.241 13.9768Z" fill="#E6BD62"/>
<path d="M136 13.792C135.9 13.9719 136.194 13.792 136 13.792V13.792Z" fill="#696148"/>
<path d="M130.63 14.5497C130.853 14.3048 131.111 14.0956 131.397 13.9294C131.407 14.1282 131.43 14.326 131.468 14.5213L131.677 14.5734L131.601 14.7012C131.397 14.8527 131.127 14.9711 131.033 15.222C130.946 15.5419 130.897 15.8708 130.886 16.2021C130.81 16.1263 130.701 16.0648 130.706 15.9464C130.712 15.7024 130.733 15.4589 130.768 15.2173C130.662 15.3854 130.579 15.5669 130.521 15.757C130.488 15.8707 130.351 15.8991 130.261 15.9559L129.986 16.06C129.986 15.9559 130.015 15.8565 130.034 15.757L130.313 15.7286H130.005C130.034 15.2732 130.172 14.8315 130.408 14.4408C130.488 14.3461 130.569 14.2561 130.644 14.1567C130.644 14.2798 130.644 14.4076 130.644 14.5355L130.63 14.5497Z" fill="#F4ECB4"/>
<path d="M136.076 14.0194C136.076 14.2135 136.256 13.9294 136.076 14.0194V14.0194Z" fill="#71694F"/>
<path d="M137.392 14.0287L137.463 14.1092C137.983 14.8523 138.21 15.7608 138.102 16.6612C138.008 16.7132 137.908 16.7653 137.818 16.8221C137.728 16.879 137.582 17.1062 137.43 17.2151C137.16 17.3477 136.824 17.3145 136.583 17.5134C136.466 17.6814 136.336 17.8398 136.194 17.9869C136.28 18.0768 136.37 18.1526 136.45 18.2473C136.531 18.342 136.45 18.413 136.516 18.484C136.595 18.542 136.678 18.5958 136.763 18.645C136.546 18.6757 136.326 18.6757 136.109 18.645C135.91 18.639 135.713 18.6899 135.541 18.7918C135.541 17.6318 135.541 16.467 135.541 15.307C135.781 15.2853 136.014 15.2109 136.223 15.0893C136.455 14.9662 136.748 14.9235 136.914 14.701C137.06 14.4685 137.218 14.2441 137.388 14.0287H137.392Z" fill="#DFCD88"/>
<path d="M135.559 14.2419C135.651 14.3715 135.779 14.4705 135.928 14.5259H135.535C135.535 14.4265 135.535 14.3271 135.559 14.2277V14.2419Z" fill="#DFCD88"/>
<path d="M131.952 14.6397C132.004 14.6164 132.062 14.6043 132.12 14.6043C132.177 14.6043 132.235 14.6164 132.288 14.6397C132.438 14.6683 132.594 14.6484 132.733 14.5829V15.0564C132.448 14.9446 132.144 14.8883 131.838 14.8906L131.682 14.7817L131.952 14.6728V14.6397Z" fill="#DFC57C"/>
<path d="M131.031 15.2219C131.131 14.9709 131.396 14.8526 131.6 14.701L131.68 14.7484L131.836 14.8573C131.699 14.8549 131.565 14.9011 131.459 14.9877C131.352 15.0743 131.28 15.1958 131.254 15.3308C131.207 15.7001 131.079 16.0552 131.046 16.4245C131.008 16.6896 131.254 16.8648 131.334 17.0968C131.348 17.2241 131.369 17.3505 131.396 17.4756C131.358 17.6365 131.325 17.7975 131.301 17.949H131.14C131.076 18.0782 131.019 18.211 130.97 18.3467C131.022 18.6119 131.107 18.8676 131.169 19.1327C131.151 19.1713 131.135 19.2108 131.121 19.2511C130.989 19.109 130.913 18.9054 130.738 18.8107C130.695 18.735 130.648 18.6592 130.601 18.5835C130.333 18.1267 130.154 17.6241 130.07 17.1015C130.094 16.9453 130.122 16.7938 130.151 16.6281C130.26 16.8506 130.245 17.1015 130.397 17.3193L130.7 17.2483L130.752 17.3098C130.87 17.1615 130.948 16.9855 130.979 16.7985C130.909 16.8922 130.844 16.9903 130.785 17.0921C130.69 16.9674 130.612 16.8305 130.553 16.6849C130.525 16.5097 130.553 16.3298 130.515 16.1546L130.326 16.1925L130.373 16.1451L130.534 15.951H130.312H130.26C130.35 15.8942 130.487 15.8658 130.52 15.7521C130.578 15.562 130.661 15.3805 130.766 15.2124C130.732 15.454 130.711 15.6975 130.705 15.9415C130.705 16.0599 130.809 16.1214 130.885 16.1972C130.895 15.8659 130.945 15.537 131.031 15.2171V15.2219Z" fill="#F3E19D"/>
<path d="M131.255 15.3355C131.281 15.2006 131.353 15.0791 131.46 14.9924C131.566 14.9058 131.7 14.8596 131.838 14.862C132.144 14.8597 132.447 14.9159 132.732 15.0277C132.732 15.2976 132.732 15.5675 132.732 15.8374V15.8847C132.638 15.9747 132.552 16.0694 132.467 16.1593C132.314 16.2748 132.135 16.3527 131.946 16.3866L131.913 16.5428L131.875 16.718C131.637 16.4614 131.441 16.169 131.293 15.8516C131.22 15.6846 131.205 15.4978 131.25 15.3213L131.255 15.3355Z" fill="#252211"/>
<path d="M132.732 15.0421C132.918 15.1019 133.082 15.2137 133.206 15.3641C133.168 15.5913 133.13 15.8375 133.088 16.0506C133.019 16.0838 132.957 16.1314 132.908 16.1902C132.859 16.249 132.824 16.3177 132.803 16.3915C132.808 16.2101 132.79 16.0289 132.751 15.8517C132.751 15.5819 132.751 15.312 132.751 15.0421H132.732Z" fill="#DFDDD9"/>
<path d="M128.623 15.1178C128.817 15.0941 129.011 15.1178 129.205 15.1178L129.12 15.2267C129.421 15.2013 129.724 15.2285 130.015 15.3072C129.751 15.2482 129.48 15.2243 129.21 15.2362C129.113 15.2394 129.018 15.2093 128.94 15.151C128.841 15.151 128.685 15.2457 128.623 15.151V15.1178Z" fill="#D6D6D5"/>
<path d="M131.047 16.4293C131.08 16.06 131.208 15.7049 131.255 15.3356C131.21 15.5121 131.225 15.6988 131.298 15.8659C131.445 16.1833 131.642 16.4757 131.88 16.7323L131.918 16.5571H132.202C132.341 16.6584 132.472 16.7692 132.595 16.8885C132.718 16.6565 132.543 16.4151 132.567 16.1831L132.472 16.1594C132.557 16.0694 132.642 15.9748 132.737 15.8848C132.737 16.2967 132.737 16.7086 132.737 17.1205C132.282 16.9211 131.776 16.8666 131.288 16.9643C131.76 17.1221 132.245 17.2394 132.737 17.3147C132.737 17.452 132.737 17.5845 132.737 17.7218C132.515 17.8213 132.316 17.9586 132.098 18.0722C131.875 17.9207 131.71 17.6982 131.487 17.5467L131.402 17.4662C131.375 17.3411 131.354 17.2147 131.34 17.0874C131.26 16.8554 131.014 16.6802 131.052 16.4151L131.047 16.4293Z" fill="#6E6342"/>
<path d="M129.201 16.0032C129.437 15.8869 129.689 15.8071 129.949 15.7665C129.938 15.7945 129.92 15.8192 129.897 15.8383C129.874 15.8573 129.846 15.8701 129.817 15.8754C129.619 15.9482 129.412 15.9913 129.201 16.0032Z" fill="#BFA64C"/>
<path d="M141.242 15.7474C141.361 16.0647 141.351 16.4103 141.479 16.7275C141.67 17.1586 141.782 17.6204 141.81 18.0911C141.739 17.9964 141.698 17.8826 141.692 17.7644C141.659 17.512 141.592 17.2651 141.493 17.0305C141.417 16.7654 141.342 16.4955 141.261 16.2304C141.261 16.0694 141.261 15.9084 141.261 15.7569L141.242 15.7474Z" fill="#988430"/>
<path d="M132.761 15.8516C132.799 16.0288 132.817 16.21 132.813 16.3913C132.813 16.5192 132.813 16.647 132.813 16.7796L132.94 16.8837C132.94 16.95 132.907 17.0116 132.893 17.0779C132.872 17.1726 132.862 17.2696 132.865 17.3667C133.528 17.5987 134.351 17.7596 134.943 17.2862H135.014C135.043 17.5608 134.825 17.7596 134.735 17.9964C134.309 18.1716 133.788 18.1574 133.428 18.4698C133.277 18.2899 133.049 18.342 132.85 18.3799C132.817 18.2852 132.784 18.1858 132.761 18.0911C132.737 17.9964 132.761 17.8401 132.761 17.717C132.761 17.5939 132.761 17.4472 132.761 17.3099V17.1157C132.761 16.7038 132.761 16.2919 132.761 15.88V15.8326V15.8516Z" fill="#E7E3DB"/>
<path d="M130.312 15.9604H130.535L130.374 16.1546L130 16.3392C130 16.2777 130 16.1498 130 16.0835C130.104 16.0315 130.213 15.9794 130.322 15.9368L130.312 15.9604Z" fill="#F5EDB6"/>
<path d="M130.328 16.2255L130.517 16.1876C130.517 16.3628 130.517 16.5427 130.555 16.7179C130.614 16.8635 130.692 17.0005 130.787 17.1251L130.702 17.2813L130.399 17.3524C130.247 17.1535 130.262 16.8789 130.153 16.6611C130.124 16.8173 130.096 16.9688 130.072 17.1346C130.034 16.9044 130.011 16.6718 130.006 16.4386C130.104 16.3572 130.212 16.2887 130.328 16.235V16.2255Z" fill="#F4ECB4"/>
<path d="M131.951 16.4008C132.14 16.3669 132.319 16.2891 132.472 16.1736L132.567 16.1973C132.567 16.4387 132.718 16.6707 132.595 16.9027C132.472 16.7833 132.341 16.6726 132.202 16.5713H131.918L131.951 16.4151V16.4008Z" fill="#39331F"/>
<path d="M141.283 16.2304C141.363 16.4956 141.439 16.7655 141.515 17.0306C141.614 17.2652 141.681 17.512 141.714 17.7645C141.72 17.8827 141.761 17.9964 141.832 18.0912C141.785 18.4321 141.965 18.7493 141.946 19.0902C141.946 19.2133 141.946 19.3364 141.922 19.4642C141.875 19.3879 141.823 19.3151 141.766 19.2464C141.7 19.45 141.742 19.7199 141.576 19.8619C141.505 19.7578 141.468 19.5873 141.321 19.5731C141.216 19.5607 141.111 19.5745 141.013 19.6134C140.916 19.6522 140.829 19.7149 140.762 19.7956C140.551 19.9591 140.29 20.0429 140.023 20.0324C140.22 19.8204 140.396 19.5906 140.549 19.3459C140.691 19.3885 140.786 19.2654 140.89 19.1943C141.003 19.1241 141.122 19.0639 141.245 19.0144C141.342 18.858 141.412 18.6869 141.453 18.5078C141.42 18.3894 141.368 18.2806 141.34 18.1622L141.16 18.2048L141.056 18.1196C141.212 17.5006 141.288 16.8641 141.283 16.2257V16.2304Z" fill="#CCA847"/>
<path d="M129.731 16.4908C129.821 16.4529 129.826 16.5713 129.731 16.5903C129.637 16.6092 129.589 16.6897 129.514 16.6565C129.514 16.5618 129.646 16.5287 129.713 16.4908H129.731Z" fill="#C1A956"/>
<path d="M137.819 16.8224C137.909 16.7655 138.008 16.7135 138.103 16.6614C138.097 17.0448 138.009 17.4224 137.846 17.7694C137.683 18.1163 137.448 18.4245 137.156 18.6736C136.683 19.0145 136.105 18.8488 135.584 18.8819C135.574 18.8528 135.566 18.8226 135.561 18.792C135.732 18.6901 135.929 18.6392 136.129 18.6452C136.345 18.676 136.565 18.676 136.782 18.6452C136.697 18.596 136.615 18.5422 136.536 18.4842C136.493 18.4132 136.512 18.3185 136.47 18.2475C136.427 18.1765 136.299 18.077 136.214 17.9871C136.356 17.84 136.486 17.6817 136.602 17.5136C136.844 17.3148 137.18 17.3479 137.45 17.2153C137.601 17.1064 137.686 16.9313 137.838 16.8224H137.819Z" fill="#ECD592"/>
<path d="M130.786 17.1252C130.845 17.0234 130.91 16.9254 130.981 16.8317C130.95 17.0187 130.871 17.1947 130.753 17.343L130.701 17.2815L130.786 17.1252Z" fill="#D7C27C"/>
<path d="M131.289 16.9783C131.777 16.8806 132.282 16.9351 132.738 17.1346V17.3287C132.246 17.2534 131.761 17.1362 131.289 16.9783Z" fill="#242110"/>
<path d="M132.842 17.3668C132.84 17.2697 132.849 17.1727 132.871 17.078C133.061 17.3018 133.331 17.4427 133.623 17.471C134.059 17.4331 134.476 17.149 134.921 17.2863C134.329 17.7598 133.5 17.5988 132.842 17.3668Z" fill="#D6D6D5"/>
<path d="M131.398 17.4804L131.483 17.5609C131.536 17.8458 131.651 18.1157 131.82 18.3516C131.939 18.5438 132.101 18.7058 132.293 18.825C132.432 18.8533 132.573 18.8675 132.714 18.8676C132.288 18.9008 131.862 18.844 131.436 18.8676C131.4 18.9971 131.382 19.131 131.384 19.2654L131.152 19.1233C131.09 18.8582 131.005 18.6025 130.953 18.3374C131.002 18.2016 131.059 18.0688 131.124 17.9397H131.285C131.308 17.7739 131.341 17.613 131.379 17.4662L131.398 17.4804Z" fill="#EED88B"/>
<path d="M131.482 17.5609C131.705 17.7124 131.871 17.935 132.093 18.0865L132.273 18.2616C132.418 18.3532 132.578 18.4159 132.747 18.4463C132.747 18.5931 132.747 18.7351 132.747 18.8819C132.605 18.8818 132.464 18.8675 132.325 18.8393C132.133 18.72 131.971 18.558 131.852 18.3658C131.683 18.13 131.569 17.8601 131.516 17.5751L131.482 17.5609Z" fill="#DFC677"/>
<path d="M132.094 18.0863C132.312 17.9727 132.511 17.8354 132.733 17.736C132.733 17.8591 132.733 17.9822 132.733 18.11C132.572 18.11 132.383 18.11 132.26 18.2615L132.08 18.0863H132.094Z" fill="#927D49"/>
<path d="M132.287 18.2616C132.401 18.1196 132.59 18.1338 132.761 18.1101V18.4652C132.592 18.4348 132.432 18.3721 132.287 18.2806V18.2616Z" fill="#C4A859"/>
<path d="M141.032 18.1195L141.136 18.2047L141.316 18.1621C141.344 18.2805 141.397 18.3894 141.43 18.5077C141.388 18.6868 141.318 18.858 141.221 19.0144C141.098 19.0638 140.979 19.124 140.866 19.1943C140.762 19.2653 140.667 19.3884 140.525 19.3458C140.748 18.9611 140.918 18.5488 141.032 18.1195Z" fill="#C0993A"/>
<path d="M130.601 18.6073C130.648 18.6831 130.696 18.7588 130.738 18.8346C130.838 19.3442 131.066 19.82 131.401 20.2171C131.401 20.487 131.401 20.7568 131.401 21.0267C131.401 21.1214 131.453 21.254 131.571 21.2445C131.908 21.2445 132.249 21.2445 132.589 21.2445C132.457 21.4197 132.552 21.628 132.556 21.8221C132.594 22.043 132.647 22.2613 132.713 22.4755C132.603 22.7087 132.476 22.9334 132.334 23.1478C132.208 23.1407 132.081 23.1407 131.955 23.1478C131.879 23.2473 131.841 23.3893 131.704 23.413C131.051 23.0201 130.452 22.5425 129.924 21.9926C130.186 21.5332 130.319 21.0111 130.307 20.4822C130.269 20.2597 130.44 20.0845 130.473 19.8809C130.473 19.7578 130.374 19.6631 130.322 19.559C130.504 19.2773 130.6 18.9478 130.596 18.612L130.601 18.6073Z" fill="#E5CB7A"/>
<path d="M130.738 18.8346C130.913 18.9293 130.989 19.1329 131.122 19.2749C131.136 19.2347 131.151 19.1952 131.169 19.1566L131.401 19.2986C131.401 19.6016 131.401 19.9094 131.401 20.2171C131.066 19.82 130.838 19.3442 130.738 18.8346Z" fill="#D2B159"/>
<path d="M141.757 19.2462C141.814 19.3149 141.866 19.3877 141.913 19.464C141.941 19.8238 142.022 20.1742 142.026 20.5388C142.026 21.0122 142.026 21.5141 142.064 22.0018C141.519 22.5781 140.892 23.071 140.204 23.4648C139.943 23.2754 139.645 23.4222 139.408 23.569C139.454 23.4841 139.517 23.4098 139.593 23.3512C139.74 23.2281 139.796 23.0339 139.948 22.9156C140.099 22.7972 140.313 22.693 140.421 22.5179C140.549 22.248 140.824 22.1012 140.985 21.8597C141.146 21.6183 141.392 21.4384 141.368 21.1448C141.373 20.8924 141.397 20.6408 141.439 20.392C141.441 20.2094 141.48 20.029 141.553 19.8617C141.719 19.7007 141.676 19.4498 141.742 19.2462H141.757Z" fill="#BA9040"/>
<path d="M140.74 19.7954C140.807 19.7147 140.893 19.652 140.991 19.6132C141.089 19.5743 141.194 19.5605 141.299 19.5729C141.445 19.5729 141.483 19.7576 141.554 19.8617C141.481 20.029 141.442 20.2094 141.441 20.392C141.398 20.6408 141.374 20.8925 141.37 21.1448C141.393 21.4384 141.142 21.642 140.986 21.8598C140.83 22.0776 140.551 22.248 140.423 22.5179H140.162C140.364 22.1702 140.543 21.8096 140.697 21.4384C140.713 21.41 140.721 21.3783 140.721 21.346C140.721 21.3138 140.713 21.2821 140.697 21.2537C140.655 21.1496 140.697 21.0407 140.697 20.9365C140.676 20.8275 140.642 20.7211 140.598 20.6193C140.413 20.5744 140.224 20.5506 140.035 20.5483C139.798 20.5909 139.632 20.7897 139.419 20.8844C139.312 20.9145 139.208 20.9524 139.107 20.998C138.917 21.159 138.87 21.4431 138.633 21.5757C138.396 21.7082 138.226 21.9024 138.027 22.0491C137.909 22.1628 137.733 22.0776 137.591 22.1012C137.449 22.1249 137.378 22.2859 137.26 22.3569C137.142 22.4279 136.924 22.39 136.787 22.5037C136.578 22.6836 136.27 22.6315 136.048 22.7925C135.825 22.9535 135.683 23.2044 135.447 23.3417C135.27 23.458 135.111 23.5982 134.973 23.7584L134.855 23.6163C134.679 23.7658 134.479 23.8843 134.263 23.9667C134.178 23.8673 134.097 23.7442 133.955 23.7394C133.955 23.6921 133.998 23.6447 134.021 23.5926C133.969 23.5311 133.917 23.4695 133.827 23.479C133.605 23.4553 133.387 23.479 133.169 23.479C133.02 23.3991 132.894 23.2816 132.805 23.1381C132.963 22.9317 133.106 22.715 133.236 22.4895C133.321 22.3758 133.453 22.4895 133.562 22.4895L133.69 22.1912H133.87C134.005 22.062 134.101 21.8982 134.149 21.7177L134.438 21.6325C134.438 21.5561 134.455 21.4805 134.486 21.4111C134.518 21.3416 134.565 21.2799 134.623 21.23C135.418 21.23 136.218 21.23 137.014 21.23C137.938 21.2471 138.842 20.9537 139.58 20.3967C139.733 20.2816 139.876 20.1533 140.006 20.0132C140.273 20.0238 140.534 19.94 140.745 19.7765L140.74 19.7954Z" fill="#D8C173"/>
<path d="M139.424 20.8893C139.637 20.7946 139.803 20.5957 140.039 20.5531C140.229 20.5554 140.418 20.5792 140.603 20.6241C140.647 20.726 140.681 20.8323 140.702 20.9413C140.702 21.0455 140.655 21.1544 140.702 21.2586C140.718 21.2869 140.726 21.3187 140.726 21.3509C140.726 21.3831 140.718 21.4149 140.702 21.4432C140.548 21.8144 140.369 22.175 140.167 22.5227H140.428C140.305 22.6979 140.096 22.7784 139.954 22.9204C139.812 23.0625 139.746 23.2329 139.599 23.356C139.523 23.4147 139.46 23.4889 139.414 23.5738C139.087 23.7527 138.749 23.9108 138.401 24.0473C138.401 23.9857 138.401 23.9242 138.401 23.8626C138.164 23.9194 137.928 23.9621 137.686 24.0331C137.445 24.1041 137.355 24.2745 137.18 24.3692C137.026 24.3937 136.882 24.4591 136.763 24.5586C135.662 24.6519 134.554 24.5362 133.496 24.2177L133.846 24.0946C133.87 23.9692 133.933 23.8546 134.026 23.7679C134.168 23.7679 134.249 23.8958 134.334 23.9952C134.55 23.9128 134.75 23.7943 134.926 23.6448L135.044 23.7869C135.182 23.6267 135.341 23.4865 135.518 23.3702C135.755 23.2329 135.868 22.9488 136.119 22.821C136.37 22.6932 136.649 22.7121 136.858 22.5322C136.986 22.4186 137.165 22.4375 137.331 22.3854C137.497 22.3333 137.54 22.196 137.663 22.1297C137.786 22.0635 137.98 22.1913 138.098 22.0777C138.297 21.9167 138.486 21.7368 138.704 21.6042C138.922 21.4716 138.969 21.1875 139.178 21.0266C139.279 20.9809 139.383 20.943 139.49 20.9129L139.424 20.8893Z" fill="#E0CD81"/>
<path d="M132.596 21.2446H132.818C132.894 21.3595 132.994 21.4568 133.111 21.5303C133.228 21.6037 133.359 21.6516 133.495 21.6707C133.718 21.647 133.609 21.3819 133.58 21.2399H134.617C134.559 21.2897 134.513 21.3514 134.481 21.4209C134.449 21.4904 134.433 21.5659 134.433 21.6423L134.144 21.7275C134.096 21.908 133.999 22.0718 133.864 22.201H133.685L133.557 22.4993C133.448 22.4709 133.315 22.3809 133.23 22.4993C133.117 22.7316 132.989 22.9562 132.846 23.1716C132.813 23.1101 132.785 23.0485 132.756 22.987C132.619 23.0485 132.482 23.1053 132.34 23.1574C132.483 22.943 132.609 22.7183 132.719 22.4851C132.653 22.2709 132.6 22.0526 132.562 21.8317C132.562 21.6376 132.463 21.4293 132.596 21.2541V21.2446Z" fill="#C2A44D"/>
<path d="M132.818 21.2491H133.581C133.609 21.3912 133.718 21.6563 133.495 21.68C133.359 21.6609 133.228 21.613 133.111 21.5395C132.994 21.4661 132.895 21.3687 132.818 21.2539V21.2491Z" fill="#D2B159"/>
<path d="M132.341 23.1476C132.483 23.0955 132.62 23.0387 132.757 22.9772C132.786 23.0387 132.814 23.1003 132.847 23.1618C132.937 23.3053 133.063 23.4228 133.212 23.5027C133.43 23.5027 133.647 23.4743 133.87 23.5027C133.96 23.5027 134.012 23.5548 134.064 23.6164C134.04 23.6684 134.017 23.7158 133.998 23.7631C133.904 23.8498 133.841 23.9644 133.818 24.0898L133.467 24.2129C132.857 24.009 132.268 23.7441 131.711 23.4222C131.848 23.3986 131.886 23.2565 131.962 23.1571C132.088 23.1499 132.214 23.1499 132.341 23.1571V23.1476Z" fill="#CEB052"/>
<path d="M139.389 23.5692C139.626 23.4224 139.924 23.2757 140.185 23.4651C139.13 24.0844 137.948 24.4552 136.729 24.5493C136.848 24.4498 136.992 24.3843 137.145 24.3599C137.32 24.2652 137.448 24.0806 137.652 24.0237C137.855 23.9669 138.125 23.9101 138.367 23.8533C138.367 23.9148 138.367 23.9764 138.367 24.0379C138.714 23.9015 139.052 23.7433 139.38 23.5645L139.389 23.5692Z" fill="#D2BA6B"/>
</g>
<mask id="mask5_114_3157" style="mask-type:luminance" maskUnits="userSpaceOnUse" x="153" y="4" width="25" height="25">
<path d="M177.224 4.30847H153.438V28.0954H177.224V4.30847Z" fill="white"/>
</mask>
<g mask="url(#mask5_114_3157)">
<mask id="mask6_114_3157" style="mask-type:luminance" maskUnits="userSpaceOnUse" x="156" y="7" width="19" height="19">
<path d="M174.166 7.36707H156.496V25.0368H174.166V7.36707Z" fill="white"/>
</mask>
<g mask="url(#mask6_114_3157)">
<path d="M165.33 7.90686C166.971 7.90686 168.575 8.39336 169.939 9.30484C171.303 10.2163 172.366 11.5118 172.994 13.0276C173.622 14.5433 173.786 16.2112 173.466 17.8203C173.146 19.4294 172.356 20.9074 171.196 22.0675C170.036 23.2276 168.558 24.0177 166.949 24.3377C165.339 24.6578 163.672 24.4935 162.156 23.8657C160.64 23.2378 159.345 22.1746 158.433 20.8105C157.522 19.4464 157.035 17.8426 157.035 16.202C157.035 14.002 157.909 11.8921 159.465 10.3364C161.02 8.78081 163.13 7.90686 165.33 7.90686Z" fill="#F0B90B"/>
<path d="M163.18 15.312L164.439 14.0573L164.704 13.7921L165.329 13.1672L167.47 15.312L168.71 14.0573L165.329 10.672L161.939 14.0573L163.18 15.312Z" fill="white"/>
<path d="M165.335 14.9525L164.086 16.2013L165.335 17.4501L166.583 16.2013L165.335 14.9525Z" fill="white"/>
<path d="M167.47 17.097L165.329 19.2324L164.581 18.4796L164.439 18.3423L163.18 17.097L161.939 18.3375L165.329 21.7275L168.71 18.3375L167.47 17.097Z" fill="white"/>
<path d="M161.048 14.9557L159.799 16.2045L161.048 17.4532L162.296 16.2045L161.048 14.9557Z" fill="white"/>
<path d="M169.608 14.955L168.359 16.2037L169.608 17.4525L170.857 16.2037L169.608 14.955Z" fill="white"/>
</g>
</g>
<path d="M18.2614 36.3953C18.4863 36.0004 18.8134 35.6733 19.2083 35.4483C19.6261 35.2149 20.098 35.0956 20.5766 35.1027C21.1307 35.0968 21.6731 35.2621 22.1296 35.5762C22.5798 35.8755 22.9139 36.32 23.0765 36.8356H21.855C21.7508 36.5956 21.5713 36.3962 21.3436 36.2674C21.1127 36.1375 20.851 36.0721 20.5861 36.0781C20.2972 36.0732 20.0125 36.1468 19.7622 36.2911C19.5218 36.4375 19.328 36.6494 19.2036 36.9019C19.0695 37.1912 19.0001 37.5063 19.0001 37.8251C19.0001 38.144 19.0695 38.4591 19.2036 38.7484C19.325 39.0029 19.5195 39.2156 19.7622 39.3592C20.0112 39.5072 20.2965 39.5826 20.5861 39.577C20.8514 39.5815 21.1131 39.5144 21.3436 39.3828C21.5706 39.251 21.7497 39.0504 21.855 38.81H23.0765C22.9149 39.3273 22.5806 39.7736 22.1296 40.0741C21.6949 40.3492 21.1948 40.5039 20.6807 40.5222C20.1665 40.5405 19.6567 40.4218 19.2036 40.1783C18.8092 39.9525 18.4823 39.6257 18.2566 39.2313C18.0266 38.8017 17.9062 38.3219 17.9062 37.8346C17.9062 37.3473 18.0266 36.8675 18.2566 36.4379L18.2614 36.3953Z" fill="#203656"/>
<path d="M27.2819 40.4435L26.1171 38.384H25.6153V40.4435H24.5547V35.1597H26.5385C26.899 35.1501 27.2569 35.2229 27.5849 35.3727C27.852 35.5014 28.0769 35.7033 28.2335 35.9551C28.3767 36.2058 28.4503 36.4902 28.4466 36.7789C28.4527 37.1327 28.3364 37.4778 28.1172 37.7557C27.898 38.0335 27.5895 38.2271 27.244 38.3035L28.5081 40.4435H27.2819ZM25.6153 37.6027H26.5006C26.733 37.6234 26.9643 37.552 27.1445 37.4039C27.218 37.3275 27.2749 37.2368 27.3116 37.1374C27.3482 37.038 27.3639 36.932 27.3576 36.8263C27.364 36.7226 27.3483 36.6188 27.3115 36.5217C27.2748 36.4245 27.2179 36.3363 27.1445 36.2628C26.965 36.113 26.7337 36.0399 26.5006 36.0592H25.6153V37.6027Z" fill="#203656"/>
<path d="M34.1849 35.1595L32.3857 38.6064V40.4434H31.3346V38.6064L29.5449 35.1595H30.7428L31.8791 37.5742L33.006 35.1595H34.1849Z" fill="#203656"/>
<path d="M39.0137 37.5886C38.8697 37.8483 38.6501 38.058 38.384 38.1899C38.0482 38.3528 37.6775 38.4308 37.3045 38.4171H36.4238V40.4436H35.3633V35.1597H37.3092C37.6693 35.1486 38.0272 35.2199 38.3556 35.368C38.6305 35.4908 38.8604 35.696 39.0137 35.9551C39.1517 36.2052 39.2241 36.4862 39.2241 36.7718C39.2241 37.0575 39.1517 37.3385 39.0137 37.5886ZM37.9105 37.3566C37.9839 37.2831 38.0408 37.1948 38.0775 37.0977C38.1143 37.0006 38.13 36.8968 38.1236 36.7931C38.1236 36.2771 37.8348 36.0214 37.2619 36.0214H36.4238V37.5602H37.2666C37.5012 37.5803 37.7342 37.5071 37.9153 37.3566H37.9105Z" fill="#203656"/>
<path d="M44.136 35.1595V36.0118H42.7156V40.4434H41.6645V36.0118H40.2441V35.1595H44.136Z" fill="#203656"/>
<path d="M46.5888 40.1499C46.1812 39.9288 45.8409 39.6016 45.604 39.203C45.3642 38.7773 45.2383 38.2971 45.2383 37.8086C45.2383 37.3201 45.3642 36.8398 45.604 36.4142C45.8409 36.0156 46.1812 35.6884 46.5888 35.4673C47.0069 35.2386 47.4758 35.1187 47.9524 35.1187C48.429 35.1187 48.8979 35.2386 49.316 35.4673C49.7212 35.69 50.0596 36.0169 50.2961 36.4142C50.5319 36.8411 50.6556 37.3209 50.6556 37.8086C50.6556 38.2963 50.5319 38.7761 50.2961 39.203C50.0596 39.6003 49.7212 39.9272 49.316 40.1499C48.8979 40.3786 48.429 40.4985 47.9524 40.4985C47.4758 40.4985 47.0069 40.3786 46.5888 40.1499ZM48.7905 39.3355C49.0347 39.1888 49.2319 38.9753 49.3586 38.72C49.5018 38.4254 49.5717 38.1005 49.5622 37.7731C49.5736 37.4455 49.5037 37.1201 49.3586 36.8262C49.2318 36.5722 49.0346 36.3602 48.7905 36.2154C48.5355 36.0699 48.2459 35.9963 47.9524 36.0023C47.6559 35.9962 47.3633 36.0698 47.1049 36.2154C46.8583 36.3586 46.6592 36.5709 46.532 36.8262C46.3893 37.1209 46.3195 37.4457 46.3284 37.7731C46.3215 38.1003 46.3912 38.4246 46.532 38.72C46.6591 38.9765 46.8582 39.1904 47.1049 39.3355C47.3628 39.4827 47.6555 39.558 47.9524 39.5533C48.2399 39.5545 48.5226 39.4793 48.7715 39.3355H48.7905Z" fill="#203656"/>
<path d="M52.0856 36.3953C52.3106 36.0004 52.6376 35.6734 53.0325 35.4484C53.4848 35.204 53.9943 35.0853 54.508 35.1044C55.0217 35.1236 55.5209 35.2799 55.9538 35.5573C56.404 35.8566 56.7381 36.3011 56.9007 36.8167H55.6792C55.5751 36.5767 55.3955 36.3773 55.1678 36.2485C54.9369 36.1186 54.6752 36.0532 54.4103 36.0592C54.1215 36.0543 53.8367 36.1279 53.5865 36.2722C53.346 36.4186 53.1522 36.6305 53.0278 36.883C52.8938 37.1723 52.8243 37.4874 52.8243 37.8062C52.8243 38.1251 52.8938 38.4402 53.0278 38.7295C53.1492 38.984 53.3437 39.1967 53.5865 39.3403C53.8354 39.4883 54.1207 39.5637 54.4103 39.5581C54.6757 39.5626 54.9373 39.4955 55.1678 39.3639C55.3948 39.2321 55.5739 39.0315 55.6792 38.7911H56.9007C56.7391 39.3084 56.4048 39.7547 55.9538 40.0552C55.5191 40.3303 55.019 40.485 54.5049 40.5033C53.9907 40.5216 53.481 40.4029 53.0278 40.1594C52.6335 39.9336 52.3066 39.6067 52.0808 39.2124C51.8508 38.7828 51.7305 38.303 51.7305 37.8157C51.7305 37.3284 51.8508 36.8486 52.0808 36.419L52.0856 36.3953Z" fill="#203656"/>
<path d="M59.4252 35.1595V38.4312C59.4141 38.5795 59.4332 38.7285 59.4812 38.8693C59.5292 39.01 59.6052 39.1396 59.7045 39.2503C59.927 39.4343 60.2066 39.5349 60.4952 39.5349C60.7839 39.5349 61.0635 39.4343 61.2859 39.2503C61.3853 39.1396 61.4613 39.01 61.5093 38.8693C61.5573 38.7285 61.5763 38.5795 61.5653 38.4312V35.1595H62.6353V38.4217C62.6489 38.8217 62.5487 39.2174 62.3465 39.5628C62.1546 39.8583 61.884 40.0944 61.5653 40.2446C61.2247 40.4044 60.8525 40.4853 60.4763 40.4813C60.1061 40.486 59.7399 40.4049 59.4063 40.2446C59.0875 40.0929 58.8219 39.8487 58.644 39.5438C58.4472 39.1966 58.3505 38.8016 58.3646 38.4028V35.1595H59.4252Z" fill="#203656"/>
<path d="M66.9479 40.4435L65.7831 38.384H65.2813V40.4435H64.2207V35.1597H66.2045C66.565 35.1501 66.9229 35.2229 67.2509 35.3727C67.5162 35.5021 67.7395 35.704 67.8948 35.9551C68.038 36.2058 68.1116 36.4902 68.1079 36.7789C68.114 37.1327 67.9977 37.4778 67.7785 37.7557C67.5593 38.0335 67.2508 38.2271 66.9053 38.3035L68.1694 40.4435H66.9479ZM65.2813 37.6027H66.1666C66.4003 37.6208 66.6317 37.5459 66.8106 37.3944C66.8841 37.3181 66.9409 37.2273 66.9776 37.1279C67.0143 37.0285 67.0299 36.9226 67.0236 36.8168C67.03 36.7131 67.0143 36.6093 66.9776 36.5122C66.9408 36.4151 66.8839 36.3269 66.8106 36.2534C66.631 36.1035 66.3997 36.0304 66.1666 36.0498H65.2813V37.6027Z" fill="#203656"/>
<path d="M72.3793 40.4435L71.2098 38.384H70.7363V40.4435H69.6758V35.1597H71.6596C72.0201 35.1501 72.378 35.2229 72.706 35.3727C72.9718 35.5014 73.1952 35.7035 73.3499 35.9551C73.4967 36.2045 73.5721 36.4895 73.5677 36.7789C73.5732 37.1192 73.4667 37.4519 73.2647 37.7258C73.0417 38.0187 72.7236 38.2247 72.3651 38.3082L73.6292 40.4483L72.3793 40.4435ZM70.7127 37.6027H71.5981C71.8318 37.6208 72.0631 37.5459 72.242 37.3944C72.3155 37.3181 72.3723 37.2273 72.409 37.1279C72.4457 37.0285 72.4613 36.9226 72.455 36.8168C72.4614 36.7131 72.4457 36.6093 72.409 36.5122C72.3722 36.4151 72.3153 36.3269 72.242 36.2534C72.0624 36.1035 71.8311 36.0304 71.5981 36.0498H70.7363L70.7127 37.6027Z" fill="#203656"/>
<path d="M76.1328 36.0117V37.3374H77.9131V38.1802H76.1328V39.6006H78.1403V40.4623H75.0723V35.15H78.1403V36.0117H76.1328Z" fill="#203656"/>
<path d="M84.1963 40.4434H83.1357L80.7305 36.8166V40.4434H79.6699V35.15H80.7305L83.1357 38.7862V35.15H84.1963V40.4434Z" fill="#203656"/>
<path d="M85.8867 36.3954C86.1107 35.9998 86.438 35.6725 86.8336 35.4485C87.2852 35.2046 87.7938 35.086 88.3067 35.1052C88.8196 35.1243 89.318 35.2805 89.7501 35.5574C90.2003 35.8567 90.5345 36.3012 90.6971 36.8168H89.4803C89.3731 36.5788 89.1943 36.3802 88.9689 36.2486C88.7363 36.1185 88.4731 36.0531 88.2066 36.0593C87.9178 36.0544 87.6331 36.128 87.3828 36.2723C87.1489 36.4176 86.9591 36.6238 86.8336 36.8689C86.6996 37.1582 86.6302 37.4733 86.6302 37.7921C86.6302 38.111 86.6996 38.4261 86.8336 38.7154C86.9569 38.9687 87.151 39.1808 87.3923 39.3262C87.6412 39.4742 87.9266 39.5496 88.2161 39.544C88.483 39.5484 88.7462 39.4814 88.9784 39.3498C89.2031 39.2153 89.3815 39.0155 89.4897 38.7769H90.7065C90.5449 39.2943 90.2107 39.7405 89.7596 40.0411C89.3258 40.3163 88.8265 40.471 88.3131 40.4893C87.7997 40.5076 87.2906 40.3889 86.8383 40.1453C86.4434 39.9203 86.1164 39.5932 85.8914 39.1983C85.6614 38.7687 85.541 38.2889 85.541 37.8016C85.541 37.3143 85.6614 36.8345 85.8914 36.4049L85.8867 36.3954Z" fill="#203656"/>
<path d="M96.3967 35.1595L94.6117 38.6064V40.4434H93.5511V38.6064L91.752 35.1595H92.9498L94.0861 37.5742L95.2177 35.1595H96.3967Z" fill="#203656"/>
<path d="M103.192 39.4396H101.09L100.739 40.4434H99.6172L101.511 35.15H102.747L104.641 40.4434H103.519L103.192 39.4396ZM102.908 38.5874L102.141 36.3763L101.374 38.5874H102.908Z" fill="#203656"/>
<path d="M106.037 36.3953C106.262 36.0004 106.589 35.6733 106.984 35.4483C107.401 35.2149 107.873 35.0956 108.352 35.1027C108.906 35.0968 109.448 35.2621 109.905 35.5762C110.355 35.8755 110.689 36.32 110.852 36.8356H109.63C109.526 36.5956 109.347 36.3962 109.119 36.2674C108.888 36.1375 108.626 36.0721 108.361 36.0781C108.073 36.0732 107.788 36.1468 107.538 36.2911C107.297 36.4375 107.103 36.6494 106.979 36.9019C106.845 37.1912 106.776 37.5063 106.776 37.8251C106.776 38.144 106.845 38.4591 106.979 38.7484C107.1 39.0029 107.295 39.2156 107.538 39.3592C107.787 39.5072 108.072 39.5826 108.361 39.577C108.627 39.5815 108.889 39.5144 109.119 39.3828C109.346 39.251 109.525 39.0504 109.63 38.81H110.852C110.69 39.3273 110.356 39.7736 109.905 40.0741C109.47 40.3492 108.97 40.5039 108.456 40.5222C107.942 40.5405 107.432 40.4218 106.979 40.1783C106.585 39.9525 106.258 39.6257 106.032 39.2313C105.802 38.8017 105.682 38.3219 105.682 37.8346C105.682 37.3473 105.802 36.8675 106.032 36.4379L106.037 36.3953Z" fill="#203656"/>
<path d="M112.425 36.3953C112.647 35.9984 112.975 35.6707 113.372 35.4484C113.824 35.204 114.333 35.0853 114.847 35.1044C115.361 35.1236 115.86 35.2799 116.293 35.5573C116.741 35.8583 117.075 36.3021 117.24 36.8167H116.018C115.913 36.5777 115.733 36.3786 115.507 36.2485C115.274 36.118 115.011 36.0526 114.745 36.0592C114.457 36.0537 114.174 36.1274 113.925 36.2722C113.682 36.414 113.482 36.6205 113.348 36.8688C113.217 37.159 113.149 37.4737 113.149 37.792C113.149 38.1104 113.217 38.4251 113.348 38.7153C113.473 38.9689 113.669 39.181 113.911 39.3261C114.158 39.4746 114.442 39.5501 114.73 39.5439C114.997 39.549 115.261 39.4819 115.493 39.3497C115.718 39.2164 115.897 39.0162 116.004 38.7768H117.226C117.061 39.2928 116.728 39.7382 116.279 40.041C115.844 40.3161 115.344 40.4708 114.83 40.4891C114.316 40.5074 113.806 40.3887 113.353 40.1452C112.956 39.9221 112.629 39.5946 112.406 39.1982C112.173 38.7695 112.051 38.2894 112.051 37.8015C112.051 37.3136 112.173 36.8335 112.406 36.4048L112.425 36.3953Z" fill="#203656"/>
<path d="M119.777 36.0117V37.3374H121.558V38.1802H119.777V39.6006H121.785V40.4623H118.717V35.15H121.785V36.0117H119.777Z" fill="#203656"/>
<path d="M126.97 37.5886C126.824 37.8472 126.605 38.0565 126.34 38.1899C126.004 38.3528 125.633 38.4308 125.26 38.4171H124.375V40.4436H123.314V35.1597H125.26C125.621 35.1486 125.978 35.2199 126.307 35.368C126.577 35.494 126.803 35.6986 126.955 35.9551C127.091 36.2061 127.161 36.4868 127.161 36.7718C127.161 37.0569 127.091 37.3375 126.955 37.5886H126.97ZM125.866 37.3566C125.94 37.2831 125.997 37.1948 126.033 37.0977C126.07 37.0006 126.086 36.8968 126.08 36.7931C126.08 36.2771 125.791 36.0214 125.218 36.0214H124.375V37.5602H125.218C125.452 37.5792 125.685 37.5062 125.866 37.3566Z" fill="#203656"/>
<path d="M132.087 35.1595V36.0118H130.667V40.4434H129.606V36.0118H128.186V35.1595H132.087Z" fill="#203656"/>
<path d="M134.488 36.0117V37.3374H136.269V38.1802H134.488V39.6006H136.496V40.4623H133.428V35.15H136.496V36.0117H134.488Z" fill="#203656"/>
<path d="M141.34 35.4817C141.752 35.6935 142.091 36.0232 142.315 36.4286C142.556 36.8624 142.675 37.3531 142.661 37.849C142.672 38.3341 142.553 38.8134 142.315 39.2362C142.088 39.6332 141.749 39.9544 141.34 40.1595C140.883 40.3816 140.38 40.492 139.872 40.4815H138.025V35.1597H139.862C140.373 35.1477 140.88 35.2581 141.34 35.4817ZM141.127 39.0895C141.283 38.9171 141.403 38.7152 141.48 38.4957C141.558 38.2761 141.59 38.0434 141.576 37.8111C141.59 37.5766 141.558 37.3417 141.481 37.1199C141.403 36.898 141.283 36.6937 141.127 36.5185C140.955 36.355 140.752 36.2286 140.53 36.1472C140.307 36.0657 140.07 36.0309 139.834 36.0451H139.086V39.5393H139.834C140.069 39.5546 140.304 39.5227 140.526 39.4454C140.748 39.3682 140.952 39.2471 141.127 39.0895Z" fill="#203656"/>
<path d="M150.779 35.1595V40.4434H149.718V38.1945H147.436V40.4434H146.395V35.1595H147.436V37.3328H149.699V35.1595H150.779Z" fill="#203656"/>
<path d="M153.455 36.0117V37.3374H155.235V38.1802H153.455V39.6006H155.486V40.4623H152.418V35.15H155.486V36.0117H153.455Z" fill="#203656"/>
<path d="M159.748 40.4436L158.578 38.384H158.076V40.4436H157.016V35.1597H159.004C159.363 35.1491 159.72 35.2221 160.046 35.3728C160.314 35.5001 160.539 35.7024 160.694 35.9551C160.841 36.2045 160.917 36.4896 160.912 36.7789C160.918 37.1193 160.811 37.452 160.609 37.7259C160.386 38.0188 160.068 38.2247 159.71 38.3082L160.974 40.4483L159.748 40.4436ZM158.076 37.6028H158.966C159.2 37.6208 159.431 37.546 159.61 37.3945C159.684 37.3181 159.741 37.2274 159.777 37.128C159.814 37.0285 159.83 36.9226 159.823 36.8168C159.83 36.7132 159.814 36.6094 159.777 36.5122C159.74 36.4151 159.684 36.3269 159.61 36.2534C159.431 36.1036 159.199 36.0305 158.966 36.0498H158.076V37.6028Z" fill="#203656"/>
<path d="M163.479 36.0117V37.3374H165.259V38.1802H163.479V39.6006H165.486V40.4623H162.418V35.15H165.486V36.0117H163.479Z" fill="#203656"/>
<defs>
<linearGradient id="paint0_linear_114_3157" x1="107.054" y1="7.75061" x2="107.054" y2="24.7196" gradientUnits="userSpaceOnUse">
<stop stop-color="#F9AA4B"/>
<stop offset="1" stop-color="#F7931A"/>
</linearGradient>
</defs>
</svg>
